# File created by Blade
# Date/Time:  Thu Jan 22 19:49:01 2015
# Frame Rate: 120.000 fps
#------------------------------------------------------
:FULLY-SPECIFIED
:DEGREES
3009
root -2.112548 3.312767 -9.346653 -26.267080 -21.552200 0.221066
RightUpLeg -76.521386 31.468864 58.905401
RightLeg 109.911905 -0.000000 -0.000000
RightFoot 15.866706 -3.197496 -15.535972
RightToeBase 3.448274 -0.000000 -0.000000
LeftUpLeg -57.901757 11.732511 14.427625
LeftLeg 1.510275 -0.000000 -0.000000
LeftFoot 23.655253 7.251691 -12.303507
LeftToeBase -0.669170 -0.000000 0.000000
Spine 50.570542 -43.832409 -34.374429
RightShoulder -10.508541 -14.006403 -14.164511
RightArm 11.380806 -28.616412 83.237641
RightForeArm 10.426854 -0.000000 7.551656
RightHand 17.463724 0.000000 -13.544807
RightHandThumb1 -24.326973 -0.000000 -32.862282
LeftShoulder 2.469777 -23.473562 26.140851
LeftArm 68.521308 62.486653 -13.553759
LeftForeArm 27.925759 -0.000000 71.848759
LeftHand 11.175051 -0.000000 -21.798415
LeftHandThumb1 -26.253704 0.000000 33.147579
Head -29.743610 -62.541972 30.007505
3010
root -2.113902 3.311793 -9.345291 -26.267624 -21.546956 0.213991
RightUpLeg -76.528201 31.467581 58.907898
RightLeg 109.916117 -0.000000 -0.000000
RightFoot 15.870127 -3.206424 -15.505322
RightToeBase 3.455337 -0.000000 -0.000000
LeftUpLeg -57.907188 11.722168 14.436345
LeftLeg 1.520336 -0.000000 -0.000000
LeftFoot 23.665908 7.240267 -12.303323
LeftToeBase -0.687533 -0.000000 0.000000
Spine 50.579113 -43.821855 -34.357737
RightShoulder -10.508168 -13.996926 -14.149790
RightArm 11.333278 -28.396063 83.304772
RightForeArm 10.522617 -0.000000 7.521450
RightHand 17.543188 -0.000000 -13.677946
RightHandThumb1 -24.326973 -0.000000 -32.862282
LeftShoulder 2.440842 -23.514122 26.177155
LeftArm 68.524059 62.486391 -13.619243
LeftForeArm 28.005828 0.000000 71.803836
LeftHand 11.224924 -0.000000 -21.830332
LeftHandThumb1 -26.253704 0.000000 33.147579
Head -29.847024 -62.531005 30.082537
3011
root -2.117424 3.311578 -9.345128 -26.289038 -21.554346 0.234057
RightUpLeg -76.500947 31.468937 58.910599
RightLeg 109.905368 -0.000000 -0.000000
RightFoot 15.870470 -3.199069 -15.490931
RightToeBase 3.529465 -0.000000 -0.000000
LeftUpLeg -57.884984 11.739677 14.428576
LeftLeg 1.514224 -0.000000 -0.000000
LeftFoot 23.696742 7.226873 -12.297693
LeftToeBase -0.729934 -0.000000 0.000000
Spine 50.582452 -43.772887 -34.366854
RightShoulder -10.532502 -13.988866 -14.116004
RightArm 11.298921 -28.234134 83.348161
RightForeArm 10.568702 -0.000000 7.507967
RightHand 17.505811 -0.000000 -13.626491
RightHandThumb1 -24.326973 -0.000000 -32.862282
LeftShoulder 2.406838 -23.540533 26.234095
LeftArm 68.550482 62.483610 -13.673442
LeftForeArm 28.133880 -0.000000 71.754880
LeftHand 11.267337 0.000000 -21.867027
LeftHandThumb1 -26.253704 0.000000 33.147579
Head -29.943757 -62.525190 30.175675
3012
root -2.119833 3.310477 -9.345194 -26.291521 -21.560117 0.239796
RightUpLeg -76.492213 31.472725 58.917047
RightLeg 109.899109 -0.000000 -0.000000
RightFoot 15.883757 -3.188455 -15.524273
RightToeBase 3.486902 -0.000000 -0.000000
LeftUpLeg -57.886077 11.743206 14.439867
LeftLeg 1.523448 -0.000000 -0.000000
LeftFoot 23.703407 7.235185 -12.322362
LeftToeBase -0.744816 -0.000000 0.000000
Spine 50.575453 -43.752042 -34.363343
RightShoulder -10.532644 -14.006172 -14.102296
RightArm 11.300891 -28.109505 83.370354
RightForeArm 10.655220 -0.000000 7.484960
RightHand 17.498369 -0.000000 -13.667117
RightHandThumb1 -24.326973 -0.000000 -32.862282
LeftShoulder 2.380527 -23.582701 26.278482
LeftArm 68.535120 62.501852 -13.753014
LeftForeArm 28.316374 -0.000000 71.718071
LeftHand 11.288768 0.000000 -21.902956
LeftHandThumb1 -26.253704 0.000000 33.147579
Head -29.978701 -62.542763 30.203900
3013
root -2.119811 3.309534 -9.343141 -26.279334 -21.535357 0.219101
RightUpLeg -76.525190 31.461829 58.918681
RightLeg 109.915723 -0.000000 -0.000000
RightFoot 15.897987 -3.213073 -15.513056
RightToeBase 3.414046 -0.000000 -0.000000
LeftUpLeg -57.908730 11.709648 14.452837
LeftLeg 1.538842 -0.000000 -0.000000
LeftFoot 23.718454 7.214516 -12.272752
LeftToeBase -0.724061 -0.000000 0.000000
Spine 50.597622 -43.783397 -34.359829
RightShoulder -10.528180 -14.003337 -14.107268
RightArm 11.291642 -27.984350 83.385204
RightForeArm 10.821612 -0.000000 7.465750
RightHand 17.554087 -0.000000 -13.568898
RightHandThumb1 -24.326973 -0.000000 -32.862282
LeftShoulder 2.334515 -23.620366 26.312089
LeftArm 68.537719 62.501317 -13.826645
LeftForeArm 28.471083 -0.000000 71.671731
LeftHand 11.328312 -0.000000 -21.979174
LeftHandThumb1 -26.253704 0.000000 33.147579
Head -30.040066 -62.547257 30.234662
3014
root -2.120863 3.309165 -9.342481 -26.273135 -21.525706 0.203504
RightUpLeg -76.537467 31.451213 58.923811
RightLeg 109.917070 -0.000000 -0.000000
RightFoot 15.898589 -3.212788 -15.517859
RightToeBase 3.425408 -0.000000 -0.000000
LeftUpLeg -57.920979 11.691331 14.465938
LeftLeg 1.554700 -0.000000 -0.000000
LeftFoot 23.710063 7.231756 -12.270945
LeftToeBase -0.766756 -0.000000 0.000000
Spine 50.609782 -43.796115 -34.352508
RightShoulder -10.510457 -13.992129 -14.109213
RightArm 11.260742 -27.858717 83.410173
RightForeArm 10.947631 -0.000000 7.442560
RightHand 17.610410 -0.000000 -13.561428
RightHandThumb1 -24.326973 -0.000000 -32.862282
LeftShoulder 2.292657 -23.663698 26.335306
LeftArm 68.565027 62.509820 -13.858944
LeftForeArm 28.613626 -0.000000 71.615791
LeftHand 11.405051 -0.000000 -22.002322
LeftHandThumb1 -26.253704 0.000000 33.147579
Head -30.064278 -62.556911 30.227169
